<svg xmlns="http://www.w3.org/2000/svg" width="80" height="80" viewBox="0 0 80 80">
  <g id="Group_3451" data-name="Group 3451" transform="translate(-479 -1399)">
    <circle id="Ellipse_2" data-name="Ellipse 2" cx="40" cy="40" r="40" transform="translate(479 1399)"/>
    <path id="Path_6217" data-name="Path 6217" d="M50.941,14.379A27.043,27.043,0,1,0,3.157,39.719c3.012,5.68,5,6.665,2.539,2.018A23.227,23.227,0,0,1,35.036,9.359h0a17.053,17.053,0,0,1,.7,30.483c-.255.136-.512.263-.771.384-.233.14-.472.275-.714.4a15.264,15.264,0,0,1-6.019,1.747,14.472,14.472,0,0,1-1.583.041,5.343,5.343,0,0,0-1.552.537A5.309,5.309,0,0,0,26.1,52.742a.005.005,0,0,0,.007,0c.275.063.548.118.824.167a19.5,19.5,0,0,0,12.313-1.727q.229-.113.454-.232c.15-.08.3-.161.444-.244A27.041,27.041,0,0,0,50.941,14.379Z" transform="matrix(-0.966, 0.259, -0.259, -0.966, 552.105, 1457.802)" fill="#fff"/>
  </g>
</svg>
